# xmcd
#
# Track frame offsets:
#	150
#	12864
#	25699
#	39670
#	52620
#	64369
#	80028
#	93092
#	106080
#	120857
#	135798
#	147966
#
# Disc length: 2157 seconds
#
# Revision: 0
# Processed by: cddbd v1.5.2PL0 Copyright (c) Steve Scherf et al.
# Submitted via: dBpowerAMP V4.0
#
DISCID=86086b0c
DTITLE=Elmore James - Best of
DYEAR=1900
DGENRE=Blues
TTITLE0=Dust My Broom
TTITLE1=Early in the Morning
TTITLE2=Please find my Baby
TTITLE3=Hand in Hand
TTITLE4=Rock My Baby Right
TTITLE5=I Held My Baby Right
TTITLE6=Baby Whats Wrong
TTITLE7=Sinful Woman
TTITLE8=I Believe
TTITLE9=Those Muddy Shoes
TTITLE10=Country Boogie
TTITLE11=She Just Won't Do Right
EXTD=
EXTT0=
EXTT1=
EXTT2=
EXTT3=
EXTT4=
EXTT5=
EXTT6=
EXTT7=
EXTT8=
EXTT9=
EXTT10=
EXTT11=
PLAYORDER=
